<svg width="1024" height="1024" viewBox="0 0 1024 1024" fill="none" xmlns="http://www.w3.org/2000/svg">
  <defs>
    <linearGradient id="iconFill" x1="170" y1="120" x2="854" y2="904" gradientUnits="userSpaceOnUse">
      <stop stop-color="#F27A68"/>
      <stop offset="1" stop-color="#D94A3F"/>
    </linearGradient>
  </defs>

  <rect x="120" y="100" width="784" height="824" rx="152" fill="url(#iconFill)"/>

  <rect x="250" y="220" width="524" height="112" rx="28" fill="#FFF5F2"/>
  <rect x="250" y="365" width="156" height="320" rx="58" fill="#FFF5F2"/>
  <rect x="618" y="365" width="156" height="196" rx="58" fill="#FFF5F2"/>
  <path
    d="M508 486H632C707 486 764 543 764 618V653C764 728 707 785 632 785H500C456 785 420 749 420 705V620C420 546 456 486 508 486Z"
    fill="#FFF5F2"
  />
  <path
    d="M432 366H590C626 366 656 396 656 432V458C656 494 626 524 590 524H550C508 524 474 558 474 600V712C474 752 442 785 402 785H384C344 785 312 752 312 712V486C312 419 365 366 432 366Z"
    fill="url(#iconFill)"
  />

  <text
    x="512"
    y="528"
    fill="#FFF5F2"
    font-family="Arial, Helvetica, sans-serif"
    font-size="102"
    font-weight="700"
    text-anchor="middle"
  >km</text>
</svg>
