<svg width="1024" height="1024" viewBox="0 0 1024 1024" fill="none" xmlns="http://www.w3.org/2000/svg">
  <defs>
    <linearGradient id="appBg" x1="64" y1="48" x2="960" y2="1000" gradientUnits="userSpaceOnUse">
      <stop stop-color="#FBE6E2"/>
      <stop offset="1" stop-color="#F7D7D0"/>
    </linearGradient>
    <linearGradient id="mainFill" x1="176" y1="118" x2="860" y2="930" gradientUnits="userSpaceOnUse">
      <stop stop-color="#F06F5F"/>
      <stop offset="1" stop-color="#DC4A3D"/>
    </linearGradient>
  </defs>

  <rect width="1024" height="1024" rx="88" fill="url(#appBg)"/>
  <rect x="62" y="42" width="900" height="920" rx="170" fill="url(#mainFill)"/>

  <rect x="214" y="212" width="596" height="124" rx="30" fill="#FCE7E2"/>
  <rect x="214" y="356" width="176" height="452" rx="56" fill="#FCE7E2"/>
  <path
    d="M586 350H734C758 350 778 370 778 394V590C778 614 758 634 734 634H696C660 634 632 648 610 674L560 740C546 760 524 772 500 772H448C424 772 404 752 404 728V548C404 492 420 446 454 412C488 380 532 350 586 350Z"
    fill="#FCE7E2"
  />

  <text
    x="512"
    y="498"
    fill="#FFF6F2"
    font-family="Arial, Helvetica, sans-serif"
    font-size="112"
    font-weight="700"
    text-anchor="middle"
    dominant-baseline="middle"
  >km</text>
</svg>
